<svg xmlns="http://www.w3.org/2000/svg" viewBox="0 0 24 24" width="24" height="24" fill="none" stroke="#7B5EA7" stroke-width="1.75" stroke-linecap="round" stroke-linejoin="round">
  <!-- Left hemisphere -->
  <path d="M9.5 2A2.5 2.5 0 0 0 7 4.5c0 .6.2 1.2.5 1.6A3 3 0 0 0 5 9a3 3 0 0 0 .5 1.7A2.5 2.5 0 0 0 4 13a2.5 2.5 0 0 0 2 2.45V17a2 2 0 0 0 2 2h3V4.5A2.5 2.5 0 0 0 9.5 2z"/>
  <!-- Right hemisphere -->
  <path d="M14.5 2A2.5 2.5 0 0 1 17 4.5c0 .6-.2 1.2-.5 1.6A3 3 0 0 1 19 9a3 3 0 0 1-.5 1.7A2.5 2.5 0 0 1 20 13a2.5 2.5 0 0 1-2 2.45V17a2 2 0 0 1-2 2h-3V4.5A2.5 2.5 0 0 1 14.5 2z"/>
  <!-- Center line -->
  <line x1="12" y1="4" x2="12" y2="19"/>
  <!-- Neural nodes -->
  <circle cx="8" cy="10" r="1" fill="#7B5EA7" stroke="none"/>
  <circle cx="16" cy="10" r="1" fill="#7B5EA7" stroke="none"/>
</svg>
